<svg width="105" height="24" viewBox="0 0 105 24" fill="none" xmlns="http://www.w3.org/2000/svg">
<path d="M12.8945 15.9056C12.6227 16.5088 12.2849 17.0995 11.8799 17.6106C15.2401 16.4794 17.7138 13.4231 17.9861 9.755H16.7899C15.3302 9.755 14.1576 10.9187 13.9203 12.3573C13.7016 13.6834 13.3517 14.8909 12.8945 15.9056Z" fill="white"/>
<path d="M10.2487 9.755C11.7771 9.755 13.0273 11.0284 12.7466 12.5289C12.1368 15.788 10.689 18.08 9 18.08C6.8628 18.08 5.11177 14.4103 4.95625 9.755H10.2487Z" fill="white"/>
<path d="M13.9514 5.99757C14.1749 7.44959 15.3529 8.63 16.8238 8.63H18C17.8142 4.86221 15.3086 1.70368 11.8799 0.549427C12.2849 1.06051 12.6227 1.65122 12.8945 2.25438C13.374 3.31865 13.7355 4.59489 13.9514 5.99757Z" fill="white"/>
<path d="M12.7917 5.88308C13.0474 7.37598 11.8026 8.63 10.2861 8.63H4.95C5.05564 3.8685 6.82848 0.0800009 9 0.0800009C10.7322 0.0800009 12.2108 2.49075 12.7917 5.88308Z" fill="white"/>
<path d="M3.82336 8.63C3.87454 6.19626 4.33941 3.95477 5.10552 2.25438C5.37728 1.65122 5.71511 1.06051 6.12012 0.549427C2.69138 1.70368 0.18576 4.86221 0 8.63H3.82336Z" fill="white"/>
<path d="M0.0138941 9.755C0.286208 13.4231 2.75986 16.4794 6.12012 17.6106C5.71511 17.0995 5.37728 16.5088 5.10552 15.9056C4.36308 14.2578 3.90355 12.1017 3.82928 9.755H0.0138941Z" fill="white"/>
<path d="M96.5285 17.664H94.2726V0H96.5285V11.448L101.737 5.928H104.569L100.081 10.608L104.545 17.664H101.953L98.5206 12.24L96.5285 14.328V17.664Z" fill="white"/>
<path d="M80.6362 11.808C80.6362 8.136 82.9642 5.592 86.3962 5.592C89.3482 5.592 91.4123 7.272 91.8203 9.888H89.5642C89.1802 8.4 87.9802 7.608 86.4682 7.608C84.3322 7.608 82.8682 9.24 82.8682 11.784C82.8682 14.304 84.2362 15.936 86.3722 15.936C87.9802 15.936 89.1802 15.096 89.5882 13.704H91.8442C91.3882 16.248 89.2042 17.952 86.3722 17.952C82.9162 17.952 80.6362 15.504 80.6362 11.808Z" fill="white"/>
<path d="M72.0159 17.952C69.4959 17.952 68.0079 16.536 68.0079 14.4C68.0079 12.24 69.6159 10.896 72.3759 10.68L76.0719 10.392V10.056C76.0719 8.088 74.8959 7.392 73.3119 7.392C71.4159 7.392 70.3359 8.232 70.3359 9.648H68.3679C68.3679 7.2 70.3839 5.592 73.4079 5.592C76.3119 5.592 78.2799 7.128 78.2799 10.296V17.664H76.3599L76.1199 15.768C75.5199 17.112 73.9119 17.952 72.0159 17.952ZM72.6639 16.2C74.7999 16.2 76.0959 14.808 76.0959 12.6V11.976L73.0959 12.216C71.1039 12.408 70.2879 13.176 70.2879 14.328C70.2879 15.576 71.1999 16.2 72.6639 16.2Z" fill="white"/>
<path d="M64.3959 17.664H62.1399V7.824H59.8359V5.928H62.1399V2.256H64.3959V5.928H66.6999V7.824H64.3959V17.664Z" fill="white"/>
<path d="M49.3661 14.256H51.5261C51.5261 15.456 52.4381 16.176 53.9261 16.176C55.5101 16.176 56.4221 15.528 56.4221 14.448C56.4221 13.656 56.0381 13.176 54.8141 12.864L52.7501 12.384C50.6621 11.88 49.6781 10.848 49.6781 9.12C49.6781 6.96 51.5021 5.592 54.0941 5.592C56.6621 5.592 58.3421 7.032 58.3901 9.264H56.2301C56.1821 8.088 55.3901 7.344 54.0221 7.344C52.6061 7.344 51.8141 7.968 51.8141 9.048C51.8141 9.84 52.3901 10.368 53.5421 10.656L55.6061 11.16C57.5981 11.64 58.5821 12.552 58.5821 14.304C58.5821 16.536 56.6621 17.952 53.8781 17.952C51.1181 17.952 49.3661 16.488 49.3661 14.256Z" fill="white"/>
<path d="M37.4091 22.92V21.072H38.9211C40.0011 21.072 40.8651 20.904 41.4171 19.416L41.8251 18.288L37.0971 5.928H39.4731L42.8811 15.384L46.3611 5.928H48.6891L43.1451 20.304C42.3531 22.32 41.1771 23.16 39.3771 23.16C38.6331 23.16 38.0091 23.064 37.4091 22.92Z" fill="white"/>
<path d="M35.232 17.664H33V7.824H27.984V17.664H25.728V7.824H24V5.928H25.728V4.056C25.728 1.176 27.264 0 29.304 0C29.736 0 30.24 0.0240011 30.696 0.0960002V2.04H29.688C28.32 2.04 27.984 2.784 27.984 4.056V5.928H33V0H35.232V17.664Z" fill="white"/>
</svg>
